<!-- <svg xmlns="http://www.w3.org/2000/svg" viewBox="0 0 1440 320">
  <path fill="#211d58" fill-opacity="1" d="M0,128L60,133.3C120,139,240,149,360,154.7C480,160,600,160,720,138.7C840,117,960,75,1080,69.3C1200,64,1320,96,1380,112L1440,128L1440,0L1380,0C1320,0,1200,0,1080,0C960,0,840,0,720,0C600,0,480,0,360,0C240,0,120,0,60,0L0,0Z"></path>
</svg> -->
<svg width="100%" height="100%" id="svg" viewBox="0 0 1440 400" xmlns="http://www.w3.org/2000/svg" class="transition duration-300 ease-in-out delay-150"><style>
          .path-0{
            animation:pathAnim-0 4s;
            animation-timing-function: linear;
            animation-iteration-count: infinite;
          }
          @keyframes pathAnim-0{
            0%{
              d: path("M 0,400 C 0,400 0,200 0,200 C 134.96428571428572,223.92857142857142 269.92857142857144,247.85714285714283 402,264 C 534.0714285714286,280.14285714285717 663.25,288.5 763,268 C 862.75,247.49999999999997 933.0714285714284,198.14285714285717 1041,182 C 1148.9285714285716,165.85714285714283 1294.4642857142858,182.92857142857142 1440,200 C 1440,200 1440,400 1440,400 Z");
            }
            25%{
              d: path("M 0,400 C 0,400 0,200 0,200 C 140.07142857142856,242.89285714285714 280.1428571428571,285.7857142857143 398,269 C 515.8571428571429,252.21428571428572 611.5,175.75 718,162 C 824.5,148.25 941.8571428571429,197.21428571428572 1064,214 C 1186.142857142857,230.78571428571428 1313.0714285714284,215.39285714285714 1440,200 C 1440,200 1440,400 1440,400 Z");
            }
            50%{
              d: path("M 0,400 C 0,400 0,200 0,200 C 145.92857142857142,176.89285714285714 291.85714285714283,153.78571428571428 393,174 C 494.14285714285717,194.21428571428572 550.5,257.75 662,256 C 773.5,254.25 940.1428571428571,187.21428571428572 1079,167 C 1217.857142857143,146.78571428571428 1328.9285714285716,173.39285714285714 1440,200 C 1440,200 1440,400 1440,400 Z");
            }
            75%{
              d: path("M 0,400 C 0,400 0,200 0,200 C 124.03571428571428,180.53571428571428 248.07142857142856,161.07142857142858 353,173 C 457.92857142857144,184.92857142857142 543.7499999999999,228.25 659,221 C 774.2500000000001,213.75 918.9285714285713,155.92857142857142 1054,144 C 1189.0714285714287,132.07142857142858 1314.5357142857142,166.03571428571428 1440,200 C 1440,200 1440,400 1440,400 Z");
            }
            100%{
              d: path("M 0,400 C 0,400 0,200 0,200 C 134.96428571428572,223.92857142857142 269.92857142857144,247.85714285714283 402,264 C 534.0714285714286,280.14285714285717 663.25,288.5 763,268 C 862.75,247.49999999999997 933.0714285714284,198.14285714285717 1041,182 C 1148.9285714285716,165.85714285714283 1294.4642857142858,182.92857142857142 1440,200 C 1440,200 1440,400 1440,400 Z");
            }
          }</style><defs><linearGradient id="gradient" x1="88%" y1="83%" x2="12%" y2="17%"><stop offset="5%" stop-color="#211d58ff"></stop><stop offset="95%" stop-color="#211d58ff"></stop></linearGradient></defs><path d="M 0,400 C 0,400 0,200 0,200 C 134.96428571428572,223.92857142857142 269.92857142857144,247.85714285714283 402,264 C 534.0714285714286,280.14285714285717 663.25,288.5 763,268 C 862.75,247.49999999999997 933.0714285714284,198.14285714285717 1041,182 C 1148.9285714285716,165.85714285714283 1294.4642857142858,182.92857142857142 1440,200 C 1440,200 1440,400 1440,400 Z" stroke="none" stroke-width="0" fill="url(#gradient)" class="transition-all duration-300 ease-in-out delay-150 path-0" transform="rotate(-180 720 200)"></path></svg>